<svg width="80" height="80" viewBox="0 0 80 80" fill="none" xmlns="http://www.w3.org/2000/svg">
<g clip-path="url(#clip0_2092_5104)">
<path d="M79.7155 74.6593L70.86 64.3951C71.5173 63.8608 72.0043 63.1463 72.2612 62.3392C72.5181 61.5321 72.5337 60.6676 72.3061 59.8517C72.0786 59.0359 71.6178 58.3042 70.9802 57.7466C70.3427 57.189 69.5562 56.8296 68.7173 56.7127C68.7277 56.6636 68.7383 56.6146 68.747 56.565C68.8961 55.7172 68.7903 54.8441 68.4432 54.0564C68.096 53.2686 67.5231 52.6014 66.7967 52.1393C66.0704 51.6772 65.2234 51.4408 64.3627 51.4601C63.5021 51.4794 62.6664 51.7535 61.9616 52.2477L60.9772 52.9377L57.4047 48.7971C57.2929 48.6682 57.2108 48.5163 57.1642 48.3522C57.1175 48.1881 57.1075 48.0158 57.1348 47.8474C57.138 47.828 57.1406 47.8083 57.1427 47.789L58.8272 32.6472C59.0612 31.1604 58.8812 29.6378 58.3069 28.2465C58.2976 28.2242 58.2877 28.2022 58.2772 28.1805L45.5991 2.14427C45.3799 1.62773 45.0403 1.17109 44.6087 0.812457C44.1772 0.453823 43.6661 0.203586 43.1181 0.0826215C42.5702 -0.0383428 42.0013 -0.0265273 41.4588 0.117082C40.9164 0.260692 40.4162 0.531932 39.9998 0.908175C39.5836 0.531959 39.0834 0.260738 38.5409 0.117135C37.9985 -0.0264674 37.4297 -0.0382876 36.8818 0.0826605C36.3338 0.203609 35.8228 0.453819 35.3913 0.812419C34.9597 1.17102 34.6202 1.62761 34.4009 2.14411L21.7228 28.1805C21.7124 28.2022 21.7025 28.2242 21.6931 28.2465C21.1188 29.6378 20.9388 31.1604 21.1728 32.6472L22.8572 47.789C22.8594 47.8085 22.862 47.828 22.8652 47.8474C22.8925 48.0158 22.8825 48.1881 22.8359 48.3521C22.7893 48.5162 22.7072 48.6681 22.5955 48.7969L19.0228 52.9375L18.0386 52.2477C17.3337 51.7536 16.4981 51.4796 15.6375 51.4603C14.7769 51.4411 13.9299 51.6774 13.2036 52.1395C12.4774 52.6016 11.9044 53.2687 11.5572 54.0564C11.21 54.8441 11.1042 55.717 11.2531 56.5649C11.2617 56.6147 11.2725 56.6638 11.2828 56.7129C10.444 56.8299 9.65759 57.1892 9.02012 57.7468C8.38265 58.3044 7.92186 59.0361 7.6943 59.8519C7.46675 60.6676 7.48234 61.5321 7.73916 62.3392C7.99597 63.1463 8.48284 63.8608 9.14 64.3951L0.284534 74.6593C0.184001 74.7758 0.107404 74.911 0.0591172 75.0571C0.0108299 75.2032 -0.00820204 75.3575 0.00310784 75.5109C0.0144177 75.6644 0.055848 75.8142 0.125033 75.9517C0.194218 76.0891 0.289804 76.2116 0.406331 76.3122C0.522859 76.4127 0.658047 76.4893 0.804177 76.5376C0.950307 76.5859 1.10452 76.6049 1.258 76.5936C1.41149 76.5823 1.56124 76.5408 1.69871 76.4717C1.83619 76.4025 1.95869 76.3069 2.05922 76.1904L11.0608 65.7565L22.193 73.5604L18.4348 78.0786C18.2361 78.3176 18.1404 78.6258 18.1689 78.9353C18.1973 79.2448 18.3476 79.5304 18.5866 79.7291C18.8256 79.9279 19.1337 80.0235 19.4432 79.9951C19.7527 79.9666 20.0383 79.8164 20.237 79.5774L24.1188 74.9102L25.3991 75.8079C26.1039 76.302 26.9395 76.5761 27.8002 76.5953C28.6608 76.6146 29.5078 76.3782 30.2341 75.9161C30.9604 75.454 31.5333 74.7869 31.8805 73.9991C32.2276 73.2114 32.3334 72.3384 32.1844 71.4905C32.1756 71.4405 32.165 71.3911 32.1547 71.3418C33.0198 71.2209 33.8284 70.8423 34.4753 70.2555C35.1223 69.6686 35.5775 68.9005 35.7819 68.0513C35.9862 67.2021 35.9302 66.311 35.621 65.4941C35.3119 64.6771 34.764 63.9722 34.0486 63.471L33.7841 63.2855L39.4622 56.4569C39.6565 56.2185 39.836 55.9685 39.9997 55.7082C40.1623 55.9667 40.3406 56.215 40.5336 56.4518L46.1113 63.3588L45.9513 63.471C45.2354 63.9719 44.6871 64.6769 44.3776 65.4939C44.0682 66.311 44.012 67.2024 44.2165 68.0518C44.4209 68.9013 44.8765 69.6694 45.5238 70.2563C46.1711 70.8431 46.9801 71.2214 47.8455 71.3418C47.835 71.3913 47.8244 71.4405 47.8156 71.4905C47.6674 72.3382 47.7736 73.2108 48.121 73.9981C48.4683 74.7854 49.0412 75.4521 49.7672 75.914C50.4932 76.376 51.3399 76.6124 52.2002 76.5935C53.0605 76.5746 53.8959 76.3011 54.6009 75.8077L55.5983 75.1086L59.1961 79.5643C59.3914 79.8061 59.6747 79.9604 59.9837 79.9933C60.2928 80.0262 60.6023 79.935 60.8441 79.7397C61.0859 79.5445 61.2402 79.2611 61.2731 78.9521C61.306 78.643 61.2148 78.3336 61.0195 78.0918L57.5219 73.7602L68.9391 65.7565L77.9408 76.1904C78.0413 76.3069 78.1638 76.4025 78.3013 76.4717C78.4388 76.5408 78.5885 76.5823 78.742 76.5936C78.8955 76.6049 79.0497 76.5859 79.1958 76.5376C79.342 76.4893 79.4771 76.4127 79.5937 76.3122C79.7102 76.2116 79.8058 76.0891 79.875 75.9517C79.9442 75.8142 79.9856 75.6644 79.9969 75.5109C80.0082 75.3575 79.9892 75.2032 79.9409 75.0571C79.8926 74.911 79.816 74.7758 79.7155 74.6593ZM29.5422 73.3971C29.2359 73.8326 28.7693 74.129 28.2449 74.2211C27.7204 74.3133 27.1808 74.1937 26.7444 73.8886L10.7341 62.6652C10.518 62.5138 10.3339 62.3213 10.1923 62.0987C10.0506 61.8762 9.95418 61.6279 9.90848 61.368C9.86279 61.1082 9.86872 60.8419 9.92593 60.5843C9.98315 60.3268 10.0905 60.083 10.242 59.867C10.3934 59.651 10.5859 59.4669 10.8084 59.3252C11.031 59.1835 11.2793 59.0871 11.5391 59.0414C11.799 58.9957 12.0653 59.0017 12.3228 59.0589C12.5804 59.1161 12.8241 59.2235 13.0402 59.3749L13.0416 59.376L14.3788 60.3135L14.3908 60.3218L27.3086 69.3772C27.3203 69.3857 27.332 69.3941 27.3441 69.4022L29.0514 70.599C29.4874 70.905 29.7841 71.3716 29.8761 71.8963C29.9682 72.421 29.848 72.9608 29.5422 73.3969V73.3971ZM33.1948 68.1886C32.8886 68.6243 32.422 68.9207 31.8976 69.0128C31.3731 69.105 30.8335 68.9853 30.397 68.6802L15.71 58.3844C15.7036 58.3801 15.6975 58.3755 15.6911 58.3713L14.3869 57.4571C13.9506 57.1512 13.6536 56.6846 13.5614 56.1598C13.4692 55.635 13.5892 55.0951 13.895 54.6588C14.2009 54.2225 14.6675 53.9256 15.1923 53.8333C15.7171 53.7411 16.257 53.8611 16.6933 54.1669L18.5313 55.4554C18.5416 55.4629 18.5517 55.47 18.5622 55.4771L32.7033 65.3902C32.9194 65.5416 33.1035 65.7342 33.2451 65.9568C33.3868 66.1794 33.4832 66.4277 33.5288 66.6876C33.5745 66.9475 33.5685 67.2138 33.5112 67.4713C33.4539 67.7289 33.3464 67.9726 33.1948 68.1886ZM38.8281 27.328C37.4032 27.3558 36.0374 27.9031 34.9876 28.867C33.9378 29.831 33.2762 31.1451 33.1272 32.5625L32.0605 42.5543C32.0275 42.8633 32.1187 43.1728 32.3139 43.4147C32.5091 43.6565 32.7924 43.8109 33.1015 43.8439C33.4105 43.8768 33.72 43.7857 33.9619 43.5905C34.2037 43.3952 34.3581 43.1119 34.3911 42.8029L35.4578 32.8113C35.5462 31.9693 35.9361 31.1877 36.5555 30.6106C37.1749 30.0335 37.982 29.6998 38.8281 29.671V51.6624C38.8274 52.8659 38.4127 54.0324 37.6536 54.9663L31.8584 61.9357L20.9517 54.2897L24.3703 50.3279C24.7024 49.9441 24.9471 49.4927 25.0875 49.0051C25.228 48.5174 25.2608 48.0051 25.1838 47.5035L23.4992 32.361C23.497 32.3421 23.4944 32.3233 23.4914 32.3046C23.3211 31.2477 23.444 30.1643 23.8467 29.1724L36.5223 3.14114C36.533 3.11958 36.5427 3.09755 36.5519 3.07552C36.6567 2.8229 36.8457 2.61438 37.0869 2.48542C37.3281 2.35647 37.6065 2.31504 37.8748 2.36819C38.1431 2.42134 38.3847 2.56578 38.5585 2.77695C38.7323 2.98811 38.8276 3.25296 38.8281 3.52646V27.328ZM42.353 54.9743C41.5903 54.039 41.1731 52.8694 41.1719 51.6625V29.6708C42.018 29.6996 42.8251 30.0333 43.4445 30.6104C44.0639 31.1876 44.4538 31.9692 44.5422 32.8111L45.6089 42.8027C45.6419 43.1118 45.7963 43.3951 46.0381 43.5903C46.28 43.7855 46.5895 43.8767 46.8985 43.8437C47.2076 43.8108 47.4909 43.6564 47.6861 43.4145C47.8813 43.1727 47.9725 42.8632 47.9395 42.5541L46.8728 32.5624C46.7238 31.145 46.0621 29.8309 45.0123 28.867C43.9625 27.9031 42.5968 27.3558 41.1719 27.328V3.52646C41.1719 3.25267 41.2669 2.98737 41.4407 2.7758C41.6145 2.56423 41.8563 2.4195 42.1248 2.3663C42.3934 2.31309 42.6721 2.35471 42.9134 2.48404C43.1547 2.61337 43.3437 2.82242 43.4481 3.07552C43.4573 3.09755 43.467 3.11958 43.4777 3.14114L56.1533 29.1726C56.5559 30.1644 56.6788 31.2477 56.5084 32.3046C56.5056 32.3233 56.503 32.3421 56.5008 32.361L54.8164 47.5035C54.7393 48.0051 54.7722 48.5175 54.9126 49.0052C55.0531 49.4929 55.2978 49.9442 55.6298 50.328L59.0483 54.2899L48.0348 62.0102L42.353 54.9743ZM46.8052 68.1888C46.6536 67.9728 46.5461 67.7291 46.4888 67.4715C46.4315 67.214 46.4255 66.9477 46.4712 66.6878C46.5168 66.4279 46.6132 66.1796 46.7548 65.957C46.8964 65.7343 47.0805 65.5418 47.2966 65.3904L61.4395 55.4761C61.4489 55.4699 61.458 55.4633 61.4672 55.4568L63.3069 54.1671C63.7432 53.8613 64.2831 53.7413 64.8078 53.8335C65.3326 53.9258 65.7992 54.2227 66.105 54.659C66.4108 55.0952 66.5308 55.6351 66.4386 56.1599C66.3463 56.6846 66.0494 57.1513 65.6131 57.4571L51.1694 67.5822C51.1602 67.5883 51.1514 67.5947 51.1425 67.601L49.603 68.6804C49.1666 68.9857 48.6269 69.1054 48.1024 69.0132C47.5779 68.9211 47.1113 68.6246 46.8052 68.1888ZM70.0914 61.368C70.0464 61.6281 69.9503 61.8767 69.8086 62.0994C69.6669 62.3221 69.4824 62.5145 69.2658 62.6654L53.2558 73.8888C53.0398 74.0403 52.7961 74.1478 52.5385 74.2051C52.281 74.2624 52.0147 74.2684 51.7549 74.2228C51.495 74.1772 51.2467 74.0808 51.0241 73.9392C50.8015 73.7977 50.6089 73.6136 50.4574 73.3976C50.3059 73.1816 50.1985 72.9379 50.1412 72.6804C50.0839 72.4229 50.0778 72.1566 50.1235 71.8967C50.1691 71.6369 50.2654 71.3885 50.407 71.1659C50.5486 70.9433 50.7326 70.7508 50.9486 70.5993L66.9586 59.3761L66.9594 59.3755L66.9597 59.3754C67.285 59.1474 67.6707 59.021 68.0679 59.0121C68.465 59.0033 68.8559 59.1124 69.1911 59.3257C69.5263 59.5389 69.7907 59.8468 69.951 60.2103C70.1112 60.5738 70.1601 60.9767 70.0914 61.368Z" fill="white" fill-opacity="0.4"/>
</g>
<defs>
<clipPath id="clip0_2092_5104">
<rect width="80" height="80" fill="white"/>
</clipPath>
</defs>
</svg>
