<svg width="18" height="21" viewBox="0 0 18 21" fill="none" xmlns="http://www.w3.org/2000/svg">
<g clip-path="url(#clip0_2092_5360)">
<path d="M11.02 12.9301C11.02 12.9301 11.1596 12.7906 11.4386 12.5116C11.7176 12.2326 11.8571 11.6987 11.8571 10.91C11.8571 10.1213 11.5781 9.44796 11.02 8.88993C10.462 8.33189 9.78865 8.05287 8.99996 8.05287C8.21127 8.05287 7.5379 8.33189 6.97987 8.88993C6.42183 9.44796 6.14281 10.1213 6.14281 10.91C6.14281 11.6987 6.42183 12.3721 6.97987 12.9301C7.5379 13.4881 8.21127 13.7672 8.99996 13.7672C9.78865 13.7672 10.462 13.4881 11.02 12.9301ZM12.1138 7.79618C12.1138 7.79618 12.3277 8.01009 12.7555 8.43792C13.1834 8.86575 13.3973 9.68978 13.3973 10.91C13.3973 12.1303 12.9694 13.1682 12.1138 14.0239C11.2581 14.8795 10.2202 15.3073 8.99996 15.3073C7.77972 15.3073 6.74177 14.8795 5.88612 14.0239C5.03046 13.1682 4.60263 12.1303 4.60263 10.91C4.60263 9.68978 5.03046 8.65183 5.88612 7.79618C6.74177 6.94052 7.77972 6.5127 8.99996 6.5127C10.2202 6.5127 11.2581 6.94052 12.1138 7.79618ZM14.3013 5.60868C14.3013 5.60868 14.3515 5.6589 14.452 5.75935C14.5524 5.85979 14.6026 6.05139 14.6026 6.33412C14.6026 6.61686 14.5022 6.85868 14.3013 7.05957C14.1004 7.26046 13.8586 7.36091 13.5758 7.36091C13.2931 7.36091 13.0513 7.26046 12.8504 7.05957C12.6495 6.85868 12.5491 6.61686 12.5491 6.33412C12.5491 6.05139 12.6495 5.80957 12.8504 5.60868C13.0513 5.40779 13.2931 5.30734 13.5758 5.30734C13.8586 5.30734 14.1004 5.40779 14.3013 5.60868ZM9.85375 3.87319C9.85375 3.87319 9.72447 3.87412 9.46592 3.87598C9.20736 3.87784 9.05204 3.87877 8.99996 3.87877C8.94787 3.87877 8.66327 3.87691 8.14616 3.87319C7.62905 3.86947 7.23656 3.86947 6.96871 3.87319C6.70085 3.87691 6.34185 3.88807 5.8917 3.90667C5.44155 3.92527 5.05836 3.96247 4.74214 4.01828C4.42592 4.07408 4.15993 4.1429 3.94415 4.22475C3.57213 4.37356 3.24475 4.58933 2.96201 4.87207C2.67927 5.15481 2.4635 5.48219 2.31469 5.85421C2.23284 6.06999 2.16402 6.33599 2.10822 6.65221C2.05241 6.96842 2.01521 7.35161 1.99661 7.80176C1.97801 8.25191 1.96685 8.61091 1.96313 8.87877C1.95941 9.14662 1.95941 9.53911 1.96313 10.0562C1.96685 10.5733 1.96871 10.8579 1.96871 10.91C1.96871 10.9621 1.96685 11.2467 1.96313 11.7638C1.95941 12.2809 1.95941 12.6734 1.96313 12.9413C1.96685 13.2091 1.97801 13.5681 1.99661 14.0183C2.01521 14.4684 2.05241 14.8516 2.10822 15.1678C2.16402 15.484 2.23284 15.75 2.31469 15.9658C2.4635 16.3378 2.67927 16.6652 2.96201 16.948C3.24475 17.2307 3.57213 17.4465 3.94415 17.5953C4.15993 17.6771 4.42592 17.746 4.74214 17.8018C5.05836 17.8576 5.44155 17.8948 5.8917 17.9134C6.34185 17.932 6.70085 17.9431 6.96871 17.9468C7.23656 17.9506 7.62905 17.9506 8.14616 17.9468C8.66327 17.9431 8.94787 17.9413 8.99996 17.9413C9.05204 17.9413 9.33664 17.9431 9.85375 17.9468C10.3709 17.9506 10.7633 17.9506 11.0312 17.9468C11.2991 17.9431 11.6581 17.932 12.1082 17.9134C12.5584 17.8948 12.9415 17.8576 13.2578 17.8018C13.574 17.746 13.84 17.6771 14.0558 17.5953C14.4278 17.4465 14.7552 17.2307 15.0379 16.948C15.3206 16.6652 15.5364 16.3378 15.6852 15.9658C15.7671 15.75 15.8359 15.484 15.8917 15.1678C15.9475 14.8516 15.9847 14.4684 16.0033 14.0183C16.0219 13.5681 16.0331 13.2091 16.0368 12.9413C16.0405 12.6734 16.0405 12.2809 16.0368 11.7638C16.0331 11.2467 16.0312 10.9621 16.0312 10.91C16.0312 10.8579 16.0331 10.5733 16.0368 10.0562C16.0405 9.53911 16.0405 9.14662 16.0368 8.87877C16.0331 8.61091 16.0219 8.25191 16.0033 7.80176C15.9847 7.35161 15.9475 6.96842 15.8917 6.65221C15.8359 6.33599 15.7671 6.06999 15.6852 5.85421C15.5364 5.48219 15.3206 5.15481 15.0379 4.87207C14.7552 4.58933 14.4278 4.37356 14.0558 4.22475C13.84 4.1429 13.574 4.07408 13.2578 4.01828C12.9415 3.96247 12.5584 3.92527 12.1082 3.90667C11.6581 3.88807 11.2991 3.87691 11.0312 3.87319C10.7633 3.86947 10.3709 3.86947 9.85375 3.87319ZM17.5156 7.37207C17.5528 8.02683 17.5714 9.20615 17.5714 10.91C17.5714 12.6139 17.5528 13.7932 17.5156 14.448C17.4412 15.9956 16.9799 17.1935 16.1317 18.0417C15.2834 18.8899 14.0855 19.3512 12.5379 19.4256C11.8831 19.4628 10.7038 19.4814 8.99996 19.4814C7.29609 19.4814 6.11677 19.4628 5.46201 19.4256C3.91439 19.3512 2.71647 18.8899 1.86826 18.0417C1.02005 17.1935 0.558736 15.9956 0.484331 14.448C0.447129 13.7932 0.428528 12.6139 0.428528 10.91C0.428528 9.20615 0.447129 8.02683 0.484331 7.37207C0.558736 5.82445 1.02005 4.62654 1.86826 3.77832C2.71647 2.93011 3.91439 2.4688 5.46201 2.39439C6.11677 2.35719 7.29609 2.33859 8.99996 2.33859C10.7038 2.33859 11.8831 2.35719 12.5379 2.39439C14.0855 2.4688 15.2834 2.93011 16.1317 3.77832C16.9799 4.62654 17.4412 5.82445 17.5156 7.37207Z" fill="white"/>
</g>
<defs>
<clipPath id="clip0_2092_5360">
<rect width="17.16" height="20" fill="white" transform="matrix(1 0 0 -1 0.419983 20.9102)"/>
</clipPath>
</defs>
</svg>
