<svg width="39" height="35" viewBox="0 0 39 35" fill="none" xmlns="http://www.w3.org/2000/svg">
<g clip-path="url(#clip0_2092_5390)">
<path d="M8.21684 22.8771C8.21684 22.8771 8.36546 22.7285 8.66271 22.4312C8.95995 22.134 9.10858 21.5679 9.10858 20.7331C9.10858 19.8983 8.81133 19.1836 8.21684 18.5891C7.62234 17.9947 6.90768 17.6974 6.07286 17.6974C5.23804 17.6974 4.52338 17.9947 3.92889 18.5891C3.3344 19.1836 3.03715 19.8983 3.03715 20.7331C3.03715 21.5679 3.3344 22.2826 3.92889 22.8771C4.52338 23.4716 5.23804 23.7688 6.07286 23.7688C6.90768 23.7688 7.62234 23.4716 8.21684 22.8771ZM9.79161 14.6617H29.0684L27.3798 7.88825C27.3545 7.78706 27.2659 7.67639 27.1142 7.55622C26.9624 7.43606 26.8296 7.37598 26.7157 7.37598H12.1443C12.0305 7.37598 11.8976 7.43606 11.7459 7.55622C11.5941 7.67639 11.5055 7.78706 11.4802 7.88825L9.79161 14.6617ZM34.9311 22.8771C34.9311 22.8771 35.0797 22.7285 35.377 22.4312C35.6742 22.134 35.8229 21.5679 35.8229 20.7331C35.8229 19.8983 35.5256 19.1836 34.9311 18.5891C34.3366 17.9947 33.622 17.6974 32.7871 17.6974C31.9523 17.6974 31.2377 17.9947 30.6432 18.5891C30.0487 19.1836 29.7514 19.8983 29.7514 20.7331C29.7514 21.5679 30.0487 22.2826 30.6432 22.8771C31.2377 23.4716 31.9523 23.7688 32.7871 23.7688C33.622 23.7688 34.3366 23.4716 34.9311 22.8771ZM38.8586 18.9117V26.1974C38.8586 26.3745 38.8017 26.5199 38.6878 26.6338C38.574 26.7476 38.4285 26.8045 38.2514 26.8045H36.43V29.2331C36.43 30.245 36.0758 31.1051 35.3675 31.8135C34.6592 32.5218 33.7991 32.876 32.7871 32.876C31.7752 32.876 30.9151 32.5218 30.2068 31.8135C29.4985 31.1051 29.1443 30.245 29.1443 29.2331V26.8045H9.71572V29.2331C9.71572 30.245 9.36155 31.1051 8.65322 31.8135C7.94489 32.5218 7.08477 32.876 6.07286 32.876C5.06096 32.876 4.20084 32.5218 3.49251 31.8135C2.78417 31.1051 2.43001 30.245 2.43001 29.2331V26.8045H0.608577C0.431494 26.8045 0.286033 26.7476 0.172193 26.6338C0.058354 26.5199 0.00143433 26.3745 0.00143433 26.1974V18.9117C0.00143433 17.7354 0.415683 16.7329 1.24418 15.9044C2.07268 15.0759 3.0751 14.6617 4.25143 14.6617H4.78268L6.77487 6.71191C7.06579 5.52293 7.72353 4.52683 8.74809 3.72363C9.77264 2.92043 10.9047 2.51883 12.1443 2.51883H26.7157C27.9553 2.51883 29.0874 2.92043 30.1119 3.72363C31.1365 4.52683 31.7942 5.52293 32.0851 6.71191L34.0773 14.6617H34.6086C35.7849 14.6617 36.7873 15.0759 37.6158 15.9044C38.4443 16.7329 38.8586 17.7354 38.8586 18.9117Z" fill="white"/>
</g>
<defs>
<clipPath id="clip0_2092_5390">
<rect width="38.86" height="34" fill="white" transform="matrix(1 0 0 -1 0 34.0898)"/>
</clipPath>
</defs>
</svg>
