<svg width="26" height="26" viewBox="0 0 26 26" fill="none" xmlns="http://www.w3.org/2000/svg">
<path d="M25.5 19.25V24.1133C25.5 24.5088 25.3975 24.8066 25.0996 25.1045C24.7969 25.4072 24.5088 25.5 24.1133 25.5C18.249 25.3975 11.4131 23.5322 6.94531 19.0645C2.47754 14.5967 0.602539 7.75098 0.5 1.88672C0.5 1.49121 0.597657 1.19824 0.895508 0.900391C1.19336 0.60254 1.48633 0.5 1.88672 0.5H6.75L8 8L5.66602 11.0322C6.35937 13 7.75098 15.0898 9.33301 16.6768C10.9199 18.2637 13 19.6406 14.9629 20.334L17.9951 18L25.5 19.25Z" fill="white" stroke="white" stroke-width="0.78125"/>
</svg>
