<svg width="24" height="24" viewBox="0 0 24 24" fill="none" xmlns="http://www.w3.org/2000/svg">
<path d="M12.3172 1.12877C12.2834 1.0752 12.2366 1.03107 12.1811 1.00048C12.1257 0.969898 12.0634 0.953857 12 0.953857C11.9367 0.953857 11.8744 0.969898 11.8189 1.00048C11.7635 1.03107 11.7167 1.0752 11.6829 1.12877L4.94927 11.7999C4.91148 11.8598 4.89142 11.9291 4.89142 12C4.89142 12.0708 4.91148 12.1402 4.94927 12.2001L11.6829 22.8712C11.7167 22.9247 11.7635 22.9689 11.8189 22.9995C11.8744 23.03 11.9367 23.0461 12 23.0461C12.0634 23.0461 12.1257 23.03 12.1811 22.9995C12.2366 22.9689 12.2834 22.9247 12.3172 22.8712L19.0508 12.2001C19.0886 12.1402 19.1086 12.0708 19.1086 12C19.1086 11.9291 19.0886 11.8598 19.0508 11.7999L12.3172 1.12877ZM12 21.9684L5.70987 12L12 2.03158L18.2902 12L12 21.9684Z" fill="#CA8F4C"/>
</svg>
