<svg width="20" height="21" viewBox="0 0 20 21" fill="none" xmlns="http://www.w3.org/2000/svg">
<g clip-path="url(#clip0_2092_5358)">
<path d="M7.93528 13.4994L13.3371 10.7093L7.93528 7.8856V13.4994ZM10 3.87891C11.25 3.87891 12.4572 3.89565 13.6217 3.92913C14.7861 3.96261 15.6399 3.99795 16.183 4.03516L16.9978 4.0798C17.0052 4.0798 17.0685 4.08538 17.1875 4.09654C17.3066 4.1077 17.3921 4.11886 17.4442 4.13002C17.4963 4.14118 17.5837 4.15792 17.7065 4.18025C17.8293 4.20257 17.9353 4.23233 18.0246 4.26953C18.1138 4.30673 18.218 4.3551 18.3371 4.41462C18.4561 4.47414 18.5714 4.54669 18.683 4.63225C18.7947 4.71782 18.9025 4.81641 19.0067 4.92801C19.0513 4.97266 19.109 5.04148 19.1797 5.13449C19.2504 5.22749 19.3583 5.44513 19.5034 5.78739C19.6484 6.12965 19.747 6.50539 19.7991 6.91462C19.8586 7.39081 19.9051 7.89862 19.9386 8.43806C19.9721 8.97749 19.9926 9.39974 20 9.7048V10.1512V11.6691C20.0075 12.748 19.9405 13.8268 19.7991 14.9057C19.747 15.3149 19.654 15.6851 19.5201 16.0162C19.3862 16.3473 19.2671 16.5761 19.163 16.7026L19.0067 16.8923C18.9025 17.0039 18.7947 17.1025 18.683 17.1881C18.5714 17.2736 18.4561 17.3443 18.3371 17.4001C18.218 17.4559 18.1138 17.5024 18.0246 17.5396C17.9353 17.5768 17.8293 17.6066 17.7065 17.6289C17.5837 17.6512 17.4944 17.668 17.4386 17.6791C17.3828 17.6903 17.2973 17.7015 17.1819 17.7126C17.0666 17.7238 17.0052 17.7294 16.9978 17.7294C15.1302 17.8707 12.7976 17.9414 10 17.9414C8.45983 17.9265 7.1224 17.9023 5.98773 17.8689C4.85306 17.8354 4.10715 17.8075 3.75001 17.7852L3.20313 17.7405L2.80135 17.6959C2.53349 17.6587 2.33074 17.6215 2.19309 17.5843C2.05544 17.5471 1.86571 17.4689 1.62389 17.3499C1.38208 17.2308 1.17188 17.0783 0.993312 16.8923C0.948669 16.8477 0.891006 16.7788 0.820321 16.6858C0.749637 16.5928 0.64175 16.3752 0.496661 16.0329C0.351571 15.6907 0.252985 15.3149 0.200902 14.9057C0.141378 14.4295 0.0948748 13.9217 0.0613927 13.3823C0.0279105 12.8428 0.0074492 12.4206 8.71939e-06 12.1155V11.6691V10.1512C-0.00743176 9.07236 0.0595325 7.99349 0.200902 6.91462C0.252985 6.50539 0.345991 6.13523 0.479919 5.80413C0.613848 5.47303 0.732896 5.24423 0.837062 5.11775L0.993312 4.92801C1.09748 4.81641 1.20537 4.71782 1.31697 4.63225C1.42858 4.54669 1.54391 4.47414 1.66296 4.41462C1.782 4.3551 1.88617 4.30673 1.97546 4.26953C2.06474 4.23233 2.17077 4.20257 2.29354 4.18025C2.4163 4.15792 2.50373 4.14118 2.55581 4.13002C2.6079 4.11886 2.69346 4.1077 2.81251 4.09654C2.93156 4.08538 2.9948 4.0798 3.00224 4.0798C4.8698 3.94587 7.20239 3.87891 10 3.87891Z" fill="white"/>
</g>
<defs>
<clipPath id="clip0_2092_5358">
<rect width="20" height="20" fill="white" transform="matrix(1 0 0 -1 0 20.9102)"/>
</clipPath>
</defs>
</svg>
